<?xml version="1.0" encoding="utf-8"?>
<!-- Generator: Adobe Illustrator 16.0.0, SVG Export Plug-In . SVG Version: 6.00 Build 0)  -->
<!DOCTYPE svg PUBLIC "-//W3C//DTD SVG 1.1//EN" "http://www.w3.org/Graphics/SVG/1.1/DTD/svg11.dtd">
<svg version="1.1" id="Layer_1" xmlns="http://www.w3.org/2000/svg" xmlns:xlink="http://www.w3.org/1999/xlink" x="0px" y="0px"
	 width="49.083px" height="47.855px" viewBox="0 0 49.083 47.855" enable-background="new 0 0 49.083 47.855" xml:space="preserve">
<g>
	
		<radialGradient id="SVGID_1_" cx="-313.0977" cy="552.7651" r="8.3622" gradientTransform="matrix(3.5079 0 0 -3.5079 1118.2983 1955.6711)" gradientUnits="userSpaceOnUse">
		<stop  offset="0" style="stop-color:#140F24;stop-opacity:0.85"/>
		<stop  offset="0.767" style="stop-color:#140F24"/>
	</radialGradient>
	<path fill="url(#SVGID_1_)" d="M2.045,2.045h44.992V45.81H2.045V2.045z"/>
	<path fill="#BFA4CF" d="M0,0v47.855h49.083V0H0z M2.045,2.045h44.992V45.81H2.045V2.045z M13.873,27.097l-1.619,6.107
		c-0.035,0.17-0.102,0.232-0.305,0.232H8.946c-0.202,0-0.236-0.066-0.202-0.303l5.804-20.314c0.102-0.372,0.169-0.664,0.202-1.676
		c0-0.135,0.068-0.202,0.169-0.202h4.286c0.135,0,0.202,0.034,0.236,0.202l6.513,22.024c0.033,0.168,0,0.27-0.169,0.27H22.41
		c-0.168,0-0.27-0.063-0.303-0.197l-1.688-6.143H13.873L13.873,27.097z M19.612,23.777c-0.573-2.261-1.96-7.219-2.466-9.615h-0.034
		c-0.438,2.396-1.546,6.441-2.39,9.612L19.612,23.777z M30.575,25.871c0.034,2.767,1.35,4.623,4.454,4.623
		c1.215,0,2.256-0.161,3.336-0.633c0.135-0.068,0.236-0.034,0.236,0.135v2.564c0,0.202-0.067,0.303-0.202,0.404
		c-1.079,0.54-2.425,0.775-4.112,0.775c-5.398,0-7.424-3.98-7.424-8.435c0-4.825,2.497-8.773,6.885-8.773
		c4.454,0,6.006,3.745,6.006,6.782c0,0.979-0.067,1.789-0.168,2.16c-0.034,0.169-0.102,0.228-0.271,0.263
		c-0.405,0.066-1.619,0.134-3.408,0.134L30.575,25.871L30.575,25.871z M34.726,23.058c1.046,0,1.418,0,1.519-0.034
		c0-0.135,0.035-0.25,0.035-0.352c0-1.114-0.541-3.158-2.666-3.158c-1.958,0-2.802,1.721-3.004,3.543H34.726L34.726,23.058z"/>
</g>
</svg>
