<?xml version="1.0" encoding="utf-8"?>
<!-- Generator: Adobe Illustrator 16.0.0, SVG Export Plug-In . SVG Version: 6.00 Build 0)  -->
<!DOCTYPE svg PUBLIC "-//W3C//DTD SVG 1.1//EN" "http://www.w3.org/Graphics/SVG/1.1/DTD/svg11.dtd">
<svg version="1.1" id="Layer_1" xmlns="http://www.w3.org/2000/svg" xmlns:xlink="http://www.w3.org/1999/xlink" x="0px" y="0px"
	 width="49.083px" height="47.855px" viewBox="0 0 49.083 47.855" enable-background="new 0 0 49.083 47.855" xml:space="preserve">
<g>
	
		<radialGradient id="SVGID_1_" cx="-312.3589" cy="551.0938" r="8.3618" gradientTransform="matrix(3.5079 0 0 -3.5079 1115.7072 1949.8096)" gradientUnits="userSpaceOnUse">
		<stop  offset="0" style="stop-color:#1A0D08;stop-opacity:0.85"/>
		<stop  offset="0.767" style="stop-color:#1A0D08"/>
	</radialGradient>
	<path fill="url(#SVGID_1_)" d="M2.045,2.045h44.992v43.766H2.045V2.045z"/>
	<path fill="#EE7027" d="M0,0v47.855h49.083V0H0z M2.045,2.045h44.992v43.766H2.045V2.045z"/>
	<path fill="#F07E26" d="M17.025,27.098l-1.619,6.133c-0.033,0.168-0.102,0.207-0.304,0.207h-3.004
		c-0.202,0-0.235-0.068-0.202-0.303l5.805-20.339c0.101-0.371,0.168-0.69,0.202-1.703c0-0.135,0.067-0.202,0.169-0.202h4.285
		c0.135,0,0.202,0.034,0.236,0.202l6.513,22.076c0.034,0.168,0,0.27-0.169,0.27h-3.374c-0.169,0-0.271-0.039-0.304-0.174
		l-1.688-6.166H17.025L17.025,27.098z M22.729,23.774c-0.573-2.261-1.923-7.216-2.43-9.612h-0.033
		c-0.439,2.396-1.519,6.44-2.362,9.612H22.729z M31.931,12.408c0-1.316,0.911-2.092,2.092-2.092c1.249,0,2.092,0.843,2.092,2.092
		c0,1.35-0.877,2.092-2.126,2.092C32.773,14.5,31.931,13.758,31.931,12.408L31.931,12.408z M32.159,17.057
		c0-0.168,0.067-0.236,0.236-0.236h3.209c0.169,0,0.236,0.068,0.236,0.236v16.144c0,0.168-0.034,0.236-0.236,0.236H32.43
		c-0.203,0-0.271-0.102-0.271-0.27V17.057z"/>
</g>
</svg>
