<?xml version="1.0" encoding="utf-8"?>
<!-- Generator: Adobe Illustrator 16.0.0, SVG Export Plug-In . SVG Version: 6.00 Build 0)  -->
<!DOCTYPE svg PUBLIC "-//W3C//DTD SVG 1.1//EN" "http://www.w3.org/Graphics/SVG/1.1/DTD/svg11.dtd">
<svg version="1.1" id="Layer_1" xmlns="http://www.w3.org/2000/svg" xmlns:xlink="http://www.w3.org/1999/xlink" x="0px" y="0px"
	 width="48.007px" height="67.762px" viewBox="0 0 48.007 67.762" enable-background="new 0 0 48.007 67.762" xml:space="preserve">
<g id="layer1_3_" transform="translate(-193.633,-276.3622)" inkscape:groupmode="layer" inkscape:label="Calque 1">
	<g id="g3013_3_" transform="translate(119,276.3622)">
		<polygon id="polygon2989_3_" fill="#3655A2" points="122.64,13.317 118.267,62.312 98.608,67.762 79.001,62.32 74.633,13.317 		
			"/>
		<polygon id="polygon2991_3_" fill="#3C61AB" points="114.523,59.192 118.259,17.324 98.637,17.324 98.637,63.596 		"/>
		<polygon id="polygon2993_3_" fill="#EBEBEB" points="84.649,35.498 85.187,41.508 98.637,41.508 98.637,35.498 		"/>
		<polygon id="polygon2995_3_" fill="#EBEBEB" points="98.637,23.334 98.615,23.334 83.566,23.334 84.112,29.344 98.637,29.344 		
			"/>
		<polygon id="polygon2997_3_" fill="#EBEBEB" points="98.637,57.359 98.637,51.107 98.611,51.113 91.917,49.306 91.488,44.513 
			88.237,44.513 85.456,44.513 86.298,53.95 98.609,57.367 		"/>
		<path id="path2999_3_" inkscape:connector-curvature="0" fill="#FFFFFF" d="M85.931,0h7.279v3.044h-4.235v3.044h4.235v3.044
			h-7.279V0z"/>
		<path id="path3001_3_" inkscape:connector-curvature="0" fill="#FFFFFF" d="M94.666,0h7.279v2.647H97.71v0.529h4.235v6.088h-7.279
			V6.485h4.234v-0.53h-4.234V0z"/>
		<path id="path3003_3_" inkscape:connector-curvature="0" fill="#FFFFFF" d="M103.401,0h7.279v2.647h-4.234v0.529h4.234v6.088
			h-7.279V6.485h4.235v-0.53h-4.235V0z"/>
		<polygon id="polygon3005_3_" fill="#FFFFFF" points="106.016,41.508 105.319,49.302 98.615,51.111 98.615,57.365 110.937,53.95 
			111.027,52.934 112.44,37.112 112.585,35.498 113.671,23.334 98.615,23.334 98.615,29.344 107.085,29.344 106.537,35.498 
			98.615,35.498 98.615,41.508 		"/>
	</g>
</g>
</svg>
