<?xml version="1.0" encoding="utf-8"?>
<!-- Generator: Adobe Illustrator 16.0.0, SVG Export Plug-In . SVG Version: 6.00 Build 0)  -->
<!DOCTYPE svg PUBLIC "-//W3C//DTD SVG 1.1//EN" "http://www.w3.org/Graphics/SVG/1.1/DTD/svg11.dtd">
<svg version="1.1" id="Layer_1" xmlns="http://www.w3.org/2000/svg" xmlns:xlink="http://www.w3.org/1999/xlink" x="0px" y="0px"
	 width="17.229px" height="17.229px" viewBox="0 0 17.229 17.229" enable-background="new 0 0 17.229 17.229" xml:space="preserve">
<g>
	<g>
		<path fill="#FFFFFF" d="M6.215,13.854c-0.121,0.021-0.174,0.076-0.158,0.166s0.084,0.121,0.203,0.09
			c0.119-0.029,0.172-0.082,0.156-0.156C6.4,13.872,6.334,13.838,6.215,13.854z"/>
		<path fill="#FFFFFF" d="M5.574,13.942c-0.119,0-0.18,0.041-0.18,0.123c0,0.098,0.064,0.139,0.191,0.123
			c0.121,0,0.18-0.041,0.18-0.123C5.766,13.969,5.703,13.928,5.574,13.942z"/>
		<path fill="#FFFFFF" d="M4.701,13.909c-0.031,0.082,0.018,0.139,0.145,0.168c0.113,0.045,0.184,0.021,0.213-0.068
			c0.023-0.08-0.025-0.141-0.145-0.18C4.801,13.799,4.73,13.827,4.701,13.909z"/>
		<path fill="#FFFFFF" d="M16.281,0.948C15.65,0.315,14.889,0,13.998,0H3.23C2.34,0,1.58,0.315,0.947,0.948
			C0.316,1.579,0,2.341,0,3.23v10.768c0,0.889,0.316,1.65,0.947,2.281c0.633,0.633,1.393,0.949,2.283,0.949h2.512
			c0.166,0,0.289-0.006,0.371-0.018s0.164-0.059,0.248-0.145c0.08-0.086,0.123-0.213,0.123-0.377c0-0.021-0.004-0.275-0.008-0.762
			c-0.002-0.486-0.004-0.873-0.004-1.156l-0.258,0.045c-0.166,0.029-0.373,0.043-0.623,0.039c-0.252-0.004-0.51-0.029-0.779-0.078
			s-0.52-0.16-0.752-0.338c-0.232-0.174-0.396-0.404-0.494-0.689l-0.111-0.256c-0.074-0.174-0.193-0.363-0.354-0.572
			c-0.16-0.211-0.324-0.352-0.488-0.428l-0.078-0.057c-0.053-0.037-0.102-0.08-0.145-0.133c-0.047-0.053-0.08-0.105-0.102-0.158
			c-0.023-0.053-0.004-0.094,0.055-0.129c0.061-0.033,0.17-0.051,0.326-0.051l0.225,0.035c0.148,0.029,0.334,0.119,0.555,0.268
			c0.221,0.15,0.402,0.346,0.545,0.584c0.172,0.307,0.379,0.539,0.621,0.701c0.244,0.16,0.488,0.24,0.736,0.24
			c0.246,0,0.459-0.018,0.639-0.055c0.18-0.039,0.348-0.094,0.504-0.168c0.068-0.502,0.25-0.887,0.549-1.156
			c-0.426-0.045-0.809-0.113-1.148-0.201c-0.34-0.09-0.691-0.236-1.055-0.439c-0.363-0.201-0.664-0.451-0.902-0.75
			c-0.24-0.299-0.436-0.693-0.59-1.18C3.195,9.362,3.119,8.799,3.119,8.165c0-0.905,0.295-1.675,0.885-2.311
			c-0.275-0.68-0.25-1.443,0.078-2.288C4.301,3.499,4.621,3.55,5.047,3.718c0.428,0.169,0.738,0.312,0.938,0.432
			c0.197,0.12,0.357,0.222,0.477,0.303c0.695-0.194,1.414-0.291,2.154-0.291s1.459,0.097,2.152,0.291l0.428-0.27
			c0.291-0.179,0.635-0.344,1.031-0.493s0.699-0.19,0.908-0.123c0.336,0.845,0.367,1.608,0.09,2.288
			c0.59,0.636,0.887,1.406,0.887,2.311c0,0.634-0.078,1.199-0.23,1.689s-0.352,0.881-0.594,1.178
			c-0.244,0.295-0.547,0.543-0.908,0.744c-0.363,0.203-0.715,0.35-1.055,0.439c-0.34,0.088-0.725,0.156-1.15,0.201
			c0.389,0.336,0.584,0.867,0.584,1.592v2.682c0,0.127,0.018,0.23,0.055,0.309c0.039,0.078,0.098,0.133,0.18,0.162
			c0.082,0.031,0.154,0.049,0.219,0.057s0.156,0.012,0.275,0.012H14c0.889,0,1.65-0.316,2.281-0.949
			c0.633-0.631,0.947-1.393,0.947-2.281V3.23C17.229,2.341,16.914,1.579,16.281,0.948z"/>
		<path fill="#FFFFFF" d="M3.41,12.54c-0.053,0.037-0.045,0.098,0.023,0.18c0.074,0.074,0.133,0.086,0.18,0.033
			c0.051-0.037,0.043-0.098-0.023-0.18C3.514,12.506,3.455,12.495,3.41,12.54z"/>
		<path fill="#FFFFFF" d="M3.041,12.26c-0.023,0.051,0.002,0.098,0.078,0.135c0.059,0.037,0.107,0.029,0.145-0.023
			c0.023-0.053-0.004-0.098-0.078-0.135C3.111,12.215,3.063,12.221,3.041,12.26z"/>
		<path fill="#FFFFFF" d="M3.758,12.977c-0.066,0.037-0.066,0.105,0,0.201c0.066,0.1,0.131,0.125,0.191,0.08
			c0.066-0.053,0.066-0.123,0-0.213C3.889,12.948,3.824,12.924,3.758,12.977z"/>
		<path fill="#FFFFFF" d="M4.15,13.483c-0.066,0.059-0.053,0.129,0.045,0.213c0.09,0.09,0.164,0.1,0.225,0.033
			c0.061-0.061,0.045-0.131-0.045-0.213C4.285,13.426,4.211,13.415,4.15,13.483z"/>
	</g>
</g>
</svg>
