<?xml version="1.0" encoding="utf-8"?>
<!-- Generator: Adobe Illustrator 16.0.0, SVG Export Plug-In . SVG Version: 6.00 Build 0)  -->
<!DOCTYPE svg PUBLIC "-//W3C//DTD SVG 1.1//EN" "http://www.w3.org/Graphics/SVG/1.1/DTD/svg11.dtd">
<svg version="1.1" id="Layer_1" xmlns="http://www.w3.org/2000/svg" xmlns:xlink="http://www.w3.org/1999/xlink" x="0px" y="0px"
	 width="16.566px" height="15.426px" viewBox="0 0 16.566 15.426" enable-background="new 0 0 16.566 15.426" xml:space="preserve">
<g>
	<g>
		<g>
			<path fill="#FFFFFF" d="M16.288,6.971l-2.51-2.511v-2.9c0-0.524-0.426-0.949-0.951-0.949c-0.523,0-0.949,0.425-0.949,0.949v1.001
				l-1.867-1.868C9.085-0.232,7.479-0.23,6.556,0.694L0.278,6.971c-0.371,0.371-0.371,0.972,0,1.343s0.975,0.371,1.344,0
				l6.277-6.277c0.205-0.204,0.564-0.204,0.768,0l6.279,6.277c0.186,0.186,0.428,0.277,0.672,0.277c0.242,0,0.484-0.092,0.67-0.277
				C16.659,7.943,16.659,7.342,16.288,6.971z"/>
			<path fill="#FFFFFF" d="M8.614,3.838c-0.184-0.183-0.479-0.183-0.66,0L2.433,9.359c-0.086,0.087-0.137,0.207-0.137,0.33v4.026
				c0,0.944,0.766,1.711,1.711,1.711h2.734v-4.233h3.086v4.233h2.732c0.945,0,1.713-0.767,1.713-1.711V9.689
				c0-0.123-0.049-0.243-0.137-0.33L8.614,3.838z"/>
		</g>
	</g>
</g>
</svg>
