<?xml version="1.0" encoding="utf-8"?>
<!-- Generator: Adobe Illustrator 16.0.0, SVG Export Plug-In . SVG Version: 6.00 Build 0)  -->
<!DOCTYPE svg PUBLIC "-//W3C//DTD SVG 1.1//EN" "http://www.w3.org/Graphics/SVG/1.1/DTD/svg11.dtd">
<svg version="1.1" id="Layer_1" xmlns="http://www.w3.org/2000/svg" xmlns:xlink="http://www.w3.org/1999/xlink" x="0px" y="0px"
	 width="47.65px" height="67.258px" viewBox="0 0 47.65 67.258" enable-background="new 0 0 47.65 67.258" xml:space="preserve">
<g>
	<polygon fill="#E54E27" points="4.337,61.856 0,13.218 47.65,13.218 43.31,61.848 23.797,67.258 	"/>
	<polygon fill="#EC662B" points="23.826,63.123 39.593,58.751 43.303,17.195 23.826,17.195 	"/>
	<polygon fill="#EBEBEB" points="23.826,35.234 15.932,35.234 15.388,29.125 23.826,29.125 23.826,23.161 23.806,23.161 
		8.867,23.161 9.01,24.761 10.477,41.199 23.826,41.199 	"/>
	<polygon fill="#EBEBEB" points="23.826,50.726 23.8,50.734 17.156,48.939 16.731,44.181 13.503,44.181 10.744,44.181 
		11.578,53.548 23.798,56.94 23.826,56.933 	"/>
	<path fill="#FFFFFF" d="M4.435,0h3.031v2.996h2.771V0h3.032v9.069h-3.03V6.033H7.466v3.036H4.435V0L4.435,0z"/>
	<path fill="#FFFFFF" d="M17.257,3.008h-2.67V0h8.372v3.008h-2.671v6.062h-3.031V3.008L17.257,3.008z"/>
	<path fill="#FFFFFF" d="M24.287,0h3.16l1.944,3.188L31.335,0h3.162v9.069h-3.019V4.575l-2.087,3.224H29.34l-2.087-3.224v4.495
		h-2.966V0z"/>
	<path fill="#FFFFFF" d="M36.005,0h3.033v6.072H43.3v2.998h-7.295V0z"/>
	<polygon fill="#FFFFFF" points="23.806,35.234 23.806,41.199 31.151,41.199 30.457,48.936 23.806,50.731 23.806,56.937 
		36.034,53.548 36.124,52.541 37.526,36.835 37.671,35.234 36.063,35.234 	"/>
	<polygon fill="#FFFFFF" points="23.806,23.161 23.806,26.865 23.806,29.111 23.806,29.125 38.194,29.125 38.194,29.125 
		38.213,29.125 38.334,27.785 38.605,24.761 38.747,23.161 	"/>
</g>
</svg>
