<?xml version="1.0" encoding="utf-8"?>
<!-- Generator: Adobe Illustrator 16.0.0, SVG Export Plug-In . SVG Version: 6.00 Build 0)  -->
<!DOCTYPE svg PUBLIC "-//W3C//DTD SVG 1.1//EN" "http://www.w3.org/Graphics/SVG/1.1/DTD/svg11.dtd">
<svg version="1.1" id="Layer_1" xmlns="http://www.w3.org/2000/svg" xmlns:xlink="http://www.w3.org/1999/xlink" x="0px" y="0px"
	 width="48.028px" height="67.606px" viewBox="0 0 48.028 67.606" enable-background="new 0 0 48.028 67.606" xml:space="preserve">
<g>
	<polygon fill="#E8A50A" points="48.028,13.25 24.014,13.25 24.014,13.25 0,13.25 4.501,62.074 24.014,67.606 24.014,67.606
		24.014,67.606 24.014,67.606 24.014,67.606 43.52,62.074 	"/>
	<polygon fill="#F3C100" points="24.014,17.228 24.014,63.471 24.014,63.471 39.814,58.992 43.664,17.228 	"/>
	<polygon fill="#FFFFFF" points="36.586,23.219 12.28,23.219 10.593,41.5 10.626,41.384 31.273,41.384 30.598,49.117 24.014,51.016
		17.328,49.088 16.927,44.409 10.856,44.409 11.724,53.761 24.014,57.251 36.305,53.761 37.996,35.408 16.089,35.408 16.366,29.288
		31.573,29.288 31.797,32.791 37.922,32.791 	"/>
	<g>
		<path fill="#F1F1F2" d="M24.014,23.219H12.28L10.593,41.5l0.033-0.115h13.388v-5.976h-7.08l0.278-6.12h6.802V23.219z
			 M16.927,44.409h-6.07l0.867,9.352l12.29,3.483v-6.228l-6.686-1.927L16.927,44.409z"/>
	</g>
	<g>
		<polygon fill="#FFFFFF" points="19.34,6.048 15.07,6.048 15.07,9.116 19.34,9.116 21.626,9.116 22.401,9.116 22.401,0 19.34,0
			"/>
		<path fill="#FFFFFF" d="M32.959,0.046H25.51c0,0,0,1.603,0,3.192c0.995,0.997,1.516,1.473,2.958,2.915
			c-0.844,0-2.958,0.003-2.958,0.003v2.912h7.449V6.156l-2.976-2.917h2.976V0.046z"/>
	</g>
</g>
</svg>
