<?xml version="1.0" encoding="utf-8"?>
<!-- Generator: Adobe Illustrator 16.0.0, SVG Export Plug-In . SVG Version: 6.00 Build 0)  -->
<!DOCTYPE svg PUBLIC "-//W3C//DTD SVG 1.1//EN" "http://www.w3.org/Graphics/SVG/1.1/DTD/svg11.dtd">
<svg version="1.1" id="Layer_1" xmlns="http://www.w3.org/2000/svg" xmlns:xlink="http://www.w3.org/1999/xlink" x="0px" y="0px"
	 width="14.475px" height="14.464px" viewBox="0 0 14.475 14.464" enable-background="new 0 0 14.475 14.464" xml:space="preserve">
<g>
	<g>
		<path fill="#FFFFFF" d="M14.468,11.416c0.03,0.236-0.041,0.438-0.216,0.613l-2.037,2.021c-0.093,0.102-0.212,0.189-0.36,0.26
			c-0.148,0.072-0.293,0.119-0.437,0.139c-0.01,0-0.04,0.002-0.093,0.008c-0.05,0.006-0.116,0.008-0.198,0.008
			c-0.193,0-0.509-0.033-0.943-0.1c-0.434-0.066-0.964-0.23-1.593-0.49c-0.628-0.262-1.341-0.65-2.138-1.172
			s-1.645-1.236-2.543-2.146C3.196,9.851,2.602,9.177,2.132,8.535C1.663,7.89,1.285,7.296,1,6.75
			C0.713,6.203,0.499,5.707,0.355,5.263C0.212,4.818,0.116,4.436,0.064,4.114C0.013,3.792-0.007,3.54,0.002,3.355
			C0.013,3.172,0.019,3.07,0.019,3.049c0.02-0.143,0.065-0.288,0.138-0.436c0.072-0.149,0.157-0.27,0.26-0.36l2.038-2.039
			C2.598,0.071,2.761,0,2.945,0c0.133,0,0.251,0.038,0.353,0.115c0.102,0.076,0.188,0.171,0.261,0.283l1.64,3.11
			C5.29,3.672,5.315,3.852,5.274,4.045s-0.128,0.358-0.26,0.49L4.262,5.286c-0.021,0.021-0.037,0.054-0.054,0.1
			C4.194,5.432,4.186,5.47,4.186,5.501c0.04,0.214,0.133,0.459,0.276,0.735c0.122,0.246,0.311,0.544,0.566,0.896
			C5.284,7.484,5.647,7.89,6.118,8.351c0.458,0.471,0.867,0.834,1.225,1.096C7.7,9.707,7.999,9.898,8.24,10.021
			c0.239,0.121,0.424,0.197,0.552,0.223l0.191,0.037c0.02,0,0.053-0.008,0.099-0.021c0.046-0.016,0.079-0.035,0.1-0.055l0.873-0.889
			c0.184-0.164,0.398-0.246,0.644-0.246c0.174,0,0.313,0.031,0.414,0.094h0.016l2.956,1.744
			C14.298,11.042,14.427,11.21,14.468,11.416z"/>
	</g>
</g>
</svg>
