<?xml version="1.0" encoding="utf-8"?>
<!-- Generator: Adobe Illustrator 16.0.0, SVG Export Plug-In . SVG Version: 6.00 Build 0)  -->
<!DOCTYPE svg PUBLIC "-//W3C//DTD SVG 1.1//EN" "http://www.w3.org/Graphics/SVG/1.1/DTD/svg11.dtd">
<svg version="1.1" id="Layer_1" xmlns="http://www.w3.org/2000/svg" xmlns:xlink="http://www.w3.org/1999/xlink" x="0px" y="0px"
	 width="48.666px" height="47.855px" viewBox="0 0 48.666 47.855" enable-background="new 0 0 48.666 47.855" xml:space="preserve">
<g>
	<g id="Layer_2_7_">
		<g>
			
				<linearGradient id="SVGID_1_" gradientUnits="userSpaceOnUse" x1="-111.5186" y1="225.6172" x2="-92.863" y2="186.1972" gradientTransform="matrix(1 0 0 -1 123.3447 223.1172)">
				<stop  offset="0" style="stop-color:#A4C8EB"/>
				<stop  offset="0.3941" style="stop-color:#A4C9EC"/>
				<stop  offset="0.583" style="stop-color:#93BEE7"/>
				<stop  offset="0.7838" style="stop-color:#8AB8E4"/>
				<stop  offset="1" style="stop-color:#87B6E3"/>
			</linearGradient>
			<rect fill="url(#SVGID_1_)" width="48.666" height="47.855"/>
		</g>
	</g>
	<g id="Layer_2_6_">
		<g>
			
				<linearGradient id="SVGID_2_" gradientUnits="userSpaceOnUse" x1="-104.8955" y1="218.7451" x2="-94.3513" y2="183.7061" gradientTransform="matrix(1 0 0 -1 123.3447 223.1172)">
				<stop  offset="0" style="stop-color:#21234D"/>
				<stop  offset="1" style="stop-color:#17152F"/>
			</linearGradient>
			<rect x="3.87" y="3.806" fill="url(#SVGID_2_)" width="40.926" height="40.243"/>
		</g>
	</g>
	<g id="Layer_4_3_">
		<g>
			
				<linearGradient id="SVGID_3_" gradientUnits="userSpaceOnUse" x1="-117.3203" y1="223.5205" x2="-98.6644" y2="184.0997" gradientTransform="matrix(1 0 0 -1 123.3447 223.1172)">
				<stop  offset="0" style="stop-color:#A4C8EB"/>
				<stop  offset="0.3941" style="stop-color:#A4C9EC"/>
				<stop  offset="0.583" style="stop-color:#93BEE7"/>
				<stop  offset="0.7838" style="stop-color:#8AB8E4"/>
				<stop  offset="1" style="stop-color:#87B6E3"/>
			</linearGradient>
			<path fill="url(#SVGID_3_)" d="M11.761,13.488c0,0,3.077-0.081,5.609-0.081c2.56,0,4.385,0.602,5.61,1.661
				c1.171,1,1.961,2.704,1.961,4.645c0,1.94-0.6,3.528-1.689,4.645c-1.415,1.44-3.065,2.293-5.882,2.411
				c-0.777,0.032-1.497,0.04-1.497,0.04v6.309H11.76L11.761,13.488L11.761,13.488z M15.872,23.314
				c0.447,0.043,0.728,0.023,1.39,0.015c2.206-0.026,3.567-1.368,3.567-3.396c0-1.822-1.123-3.319-3.241-3.396
				c-0.843-0.031-1.716,0-1.716,0V23.314z"/>
			<g>
				
					<linearGradient id="SVGID_4_" gradientUnits="userSpaceOnUse" x1="-106.6938" y1="228.666" x2="-87.9648" y2="189.0907" gradientTransform="matrix(1 0 0 -1 123.3447 223.1172)">
					<stop  offset="0" style="stop-color:#A4C8EB"/>
					<stop  offset="0.3941" style="stop-color:#A4C9EC"/>
					<stop  offset="0.583" style="stop-color:#93BEE7"/>
					<stop  offset="0.7838" style="stop-color:#8AB8E4"/>
					<stop  offset="1" style="stop-color:#87B6E3"/>
				</linearGradient>
				<path fill="url(#SVGID_4_)" d="M26.511,28.723c0.829,0.508,2.784,1.27,4.117,1.27c1.362,0,1.925-0.48,1.925-1.229
					c0-0.749-0.444-1.535-2.133-2.105c-2.99-1.018-4.146-2.237-4.116-3.944c0-2.756,2.31-4.823,5.894-4.823
					c1.688,0,3.037,0.552,3.925,1.001V22.2c-0.652-0.36-2.533-1.163-3.776-1.163c-1.097,0-1.719,0.449-1.719,1.197
					c0,0.689,0.564,1.049,2.341,1.678c2.753,0.958,3.908,2.366,3.938,4.523c0,2.726-2.102,4.894-6.279,4.762
					c-1.433-0.045-3.021-0.611-4.117-1.209L26.511,28.723L26.511,28.723z"/>
			</g>
		</g>
	</g>
</g>
</svg>
